<svg width="33" height="33" viewBox="0 0 33 33" fill="none" xmlns="http://www.w3.org/2000/svg">
<path d="M4.125 10.25C4.125 9.30719 4.125 8.83579 4.41789 8.54289C4.71079 8.25 5.18219 8.25 6.125 8.25H22.3046C22.8286 8.25 23.0906 8.25 23.3117 8.36833C23.5328 8.48665 23.6781 8.70463 23.9687 9.1406L28.1354 15.3906C28.4939 15.9283 28.6731 16.1972 28.6731 16.5C28.6731 16.8028 28.4939 17.0717 28.1354 17.6094L23.9687 23.8594C23.6781 24.2954 23.5328 24.5133 23.3117 24.6317C23.0906 24.75 22.8286 24.75 22.3046 24.75H6.125C5.18219 24.75 4.71079 24.75 4.41789 24.4571C4.125 24.1642 4.125 23.6928 4.125 22.75V10.25Z" stroke="white" stroke-width="2"/>
<circle cx="20.625" cy="16.5" r="1.375" stroke="white"/>
</svg>
