<svg width="26" height="18" viewBox="0 0 26 18" fill="none" xmlns="http://www.w3.org/2000/svg">
<path d="M21.2564 13.0977C20.6211 13.0977 20.0175 13.3466 19.5622 13.7966C19.1069 14.2519 18.8528 14.8448 18.8528 15.4802C18.8528 16.1155 19.1016 16.7084 19.5622 17.1637C20.0228 17.6137 20.6211 17.8626 21.2564 17.8626C22.5587 17.8626 23.6176 16.7931 23.6176 15.4802C23.6176 14.1672 22.5587 13.0977 21.2564 13.0977ZM21.2564 16.8037C20.5258 16.8037 19.9116 16.2002 19.9116 15.4802C19.9116 14.7601 20.5258 14.1566 21.2564 14.1566C21.9764 14.1566 22.5587 14.7495 22.5587 15.4802C22.5587 16.2108 21.9764 16.8037 21.2564 16.8037Z" fill="white"/>
<path d="M21.8705 5.16168C21.7752 5.07168 21.6481 5.02403 21.5158 5.02403H18.7998C18.5086 5.02403 18.2704 5.26227 18.2704 5.55346V9.89473C18.2704 10.1859 18.5086 10.4242 18.7998 10.4242H23.1093C23.4005 10.4242 23.6387 10.1859 23.6387 9.89473V6.98819C23.6387 6.83995 23.5752 6.69701 23.464 6.59642L21.8705 5.16168ZM22.5799 9.36531H19.3292V6.07759H21.3093L22.5799 7.22114V9.36531Z" fill="white"/>
<path d="M8.32784 13.0977C7.69253 13.0977 7.08899 13.3466 6.63368 13.7966C6.17838 14.2519 5.92426 14.8448 5.92426 15.4802C5.92426 16.1155 6.17308 16.7084 6.63368 17.1637C7.09428 17.6137 7.69253 17.8626 8.32784 17.8626C9.63022 17.8626 10.6891 16.7931 10.6891 15.4802C10.6891 14.1672 9.63022 13.0977 8.32784 13.0977ZM8.32784 16.8037C7.59723 16.8037 6.9831 16.2002 6.9831 15.4802C6.9831 14.7601 7.59723 14.1566 8.32784 14.1566C9.04786 14.1566 9.63022 14.7495 9.63022 15.4802C9.63022 16.2108 9.04786 16.8037 8.32784 16.8037Z" fill="white"/>
<path d="M4.79657 13.7489H3.73243V12.3407C3.73243 12.0495 3.49419 11.8112 3.20301 11.8112C2.91182 11.8112 2.67358 12.0495 2.67358 12.3407V14.2784C2.67358 14.5695 2.91182 14.8078 3.20301 14.8078H4.79657C5.08776 14.8078 5.326 14.5695 5.326 14.2784C5.326 13.9872 5.08776 13.7489 4.79657 13.7489Z" fill="white"/>
<path d="M7.48076 10.8636C7.48076 10.5724 7.24252 10.3342 6.95133 10.3342H0.529424C0.238241 10.3342 0 10.5724 0 10.8636C0 11.1548 0.238241 11.393 0.529424 11.393H6.95133C7.24252 11.393 7.48076 11.1601 7.48076 10.8636Z" fill="white"/>
<path d="M1.60417 8.95236L8.02608 8.98942C8.31727 8.98942 8.55551 8.75647 8.5608 8.46529C8.56609 8.16881 8.32785 7.93057 8.03667 7.93057L1.61476 7.89351C1.60947 7.89351 1.60947 7.89351 1.60947 7.89351C1.31828 7.89351 1.08004 8.12645 1.08004 8.41764C1.07475 8.71411 1.31299 8.95236 1.60417 8.95236Z" fill="white"/>
<path d="M2.68421 6.54878H9.10612C9.3973 6.54878 9.63554 6.31054 9.63554 6.01935C9.63554 5.72817 9.3973 5.48993 9.10612 5.48993H2.68421C2.39303 5.48993 2.15479 5.72817 2.15479 6.01935C2.15479 6.31054 2.39303 6.54878 2.68421 6.54878Z" fill="white"/>
<path d="M25.8041 5.83405L22.0134 2.69457C21.9181 2.61515 21.8017 2.5728 21.6746 2.5728H17.2169V0.666875C17.2169 0.375692 16.9786 0.137451 16.6874 0.137451H3.20301C2.91182 0.137451 2.67358 0.375692 2.67358 0.666875V4.54226C2.67358 4.83344 2.91182 5.07168 3.20301 5.07168C3.49419 5.07168 3.73243 4.83344 3.73243 4.54226V1.1963H16.1633V13.7489H11.822C11.5308 13.7489 11.2926 13.9872 11.2926 14.2784C11.2926 14.5695 11.5308 14.8078 11.822 14.8078H18.2863C18.5775 14.8078 18.8157 14.5695 18.8157 14.2784C18.8157 13.9872 18.5775 13.7489 18.2863 13.7489H17.2221V3.63165H21.4893L24.9411 6.49054L24.9041 13.7383H24.3535C24.0623 13.7383 23.8241 13.9766 23.8241 14.2678C23.8241 14.559 24.0623 14.7972 24.3535 14.7972H25.4282C25.7194 14.7972 25.9576 14.5642 25.9576 14.2731L26 6.247C25.9947 6.08817 25.9259 5.93464 25.8041 5.83405Z" fill="white"/>
</svg>
