<svg width="31" height="28" viewBox="0 0 31 28" fill="none" xmlns="http://www.w3.org/2000/svg">
<path d="M25.2083 1V1C26.255 1 26.7783 1 27.2042 1.12918C28.163 1.42003 28.9133 2.17034 29.2041 3.12915C29.3333 3.555 29.3333 4.07833 29.3333 5.125L29.3333 8.24999C29.3333 8.7214 29.3333 8.9571 29.1869 9.10355C29.0404 9.24999 28.8047 9.24999 28.3333 9.24999L21.0833 9.24999M25.2083 1V1C24.1616 1 23.6383 1 23.2125 1.12918C22.2537 1.42003 21.5033 2.17034 21.2125 3.12915C21.0833 3.555 21.0833 4.07833 21.0833 5.125L21.0833 9.24999M25.2083 1L8.58331 1C6.69769 1 5.75489 1 5.1691 1.58579C4.58331 2.17157 4.58331 3.11438 4.58331 5L4.58331 25.75L8.70831 24.375L12.8333 25.75L16.9583 24.375L21.0833 25.75L21.0833 9.24999" stroke="white" stroke-width="2"/>
<path d="M10.0833 6.5L15.5833 6.5" stroke="white" stroke-width="2" stroke-linecap="round"/>
<path d="M11 12H10.0833" stroke="white" stroke-width="2" stroke-linecap="round"/>
<path d="M10.0833 17.5L13.75 17.5" stroke="white" stroke-width="2" stroke-linecap="round"/>
</svg>
