<svg width="35" height="35" viewBox="0 0 35 35" fill="none" xmlns="http://www.w3.org/2000/svg">
<path d="M5.83331 5.83333H8.64676C9.39671 5.83333 9.77169 5.83333 10.0429 6.04512C10.3142 6.25692 10.4052 6.6207 10.587 7.34826L10.9593 8.83708C11.274 10.0962 11.4314 10.7257 11.8641 11.1293C11.9496 11.209 12.042 11.2811 12.1401 11.3448C12.6365 11.6667 13.2855 11.6667 14.5833 11.6667V11.6667" stroke="white" stroke-width="2" stroke-linecap="round"/>
<path d="M26.25 24.7917H11.0117C10.224 24.7917 9.83011 24.7917 9.57583 24.6191C9.38079 24.4867 9.23879 24.2897 9.17488 24.0628C9.09156 23.767 9.21612 23.3933 9.46522 22.646V22.646C9.74079 21.8193 9.87857 21.406 10.1401 21.105C10.3429 20.8715 10.5972 20.6882 10.8829 20.5696C11.2511 20.4167 11.6868 20.4167 12.5583 20.4167H20.4167" stroke="white" stroke-width="2" stroke-linecap="round" stroke-linejoin="round"/>
<path d="M22.3195 20.4167H15.0552C13.4368 20.4167 12.6276 20.4167 12.0682 19.9427C11.5087 19.4688 11.3756 18.6706 11.1096 17.0743L10.7905 15.1599C10.5203 13.5383 10.3851 12.7275 10.8345 12.1971C11.2838 11.6667 12.1058 11.6667 13.7497 11.6667H25.9306C27.381 11.6667 28.1061 11.6667 28.3993 12.1409C28.6924 12.6152 28.3681 13.2638 27.7194 14.5611L25.8972 18.2055C25.3593 19.2814 25.0903 19.8193 24.607 20.118C24.1237 20.4167 23.5223 20.4167 22.3195 20.4167Z" stroke="white" stroke-width="2" stroke-linecap="round"/>
<circle cx="24.7916" cy="29.1667" r="1.45833" fill="white"/>
<circle cx="13.125" cy="29.1667" r="1.45833" fill="white"/>
</svg>
